<svg xmlns="http://www.w3.org/2000/svg"  viewBox="0 0 80 80" width="80px" height="80px"><polygon fill="#f78f8f" points="21.5,74.557 21.5,6.557 34.5,6.557 34.5,72.557"/><path fill="#c74343" d="M21.5,75.057c-0.118,0-0.234-0.042-0.325-0.12C21.063,74.841,21,74.702,21,74.557v-68 c0-0.276,0.224-0.5,0.5-0.5h13c0.276,0,0.5,0.224,0.5,0.5v66c0,0.247-0.18,0.457-0.424,0.494l-13,2 C21.551,75.055,21.525,75.057,21.5,75.057z M22,7.057v66.917l12-1.846V7.057H22z"/><polygon fill="#f78f8f" points="45.5,6.557 45.5,37.557 57.5,73.557 57.5,6.557"/><path fill="#c74343" d="M57.5,74.057c-0.212,0-0.405-0.135-0.475-0.342l-12-36C45.009,37.664,45,37.61,45,37.557v-31 c0-0.276,0.224-0.5,0.5-0.5h12c0.276,0,0.5,0.224,0.5,0.5v67c0,0.245-0.178,0.454-0.42,0.493 C57.553,74.055,57.526,74.057,57.5,74.057z M46,37.476l11,33V7.057H46V37.476z"/><g><polygon fill="#f78f8f" points="34.5,6.557 21.553,6.557 44.5,72.557 57.5,73.557"/><path fill="#c74343" d="M57.5,74.057c-0.013,0-0.025,0-0.038-0.002l-13-1c-0.198-0.015-0.369-0.146-0.435-0.334l-22.947-66 c-0.053-0.152-0.028-0.322,0.065-0.454s0.245-0.21,0.407-0.21H34.5c0.214,0,0.403,0.136,0.473,0.338l23,67 c0.055,0.159,0.025,0.335-0.077,0.468C57.801,73.985,57.654,74.057,57.5,74.057z M44.865,72.083L56.78,73L34.143,7.057H22.256 L44.865,72.083z"/></g></svg>